<svg xmlns="http://www.w3.org/2000/svg" width="800" height="400">
<line x1="50" y1="50" x2="50" y2="350" stroke="black" stroke-width="1" />
<line x1="50" y1="350" x2="750" y2="350" stroke="black" stroke-width="1" />
<text x="40" y="355.0" font-size="12" text-anchor="end" font-family="Arial">31.0 m</text>
<text x="40" y="295.0" font-size="12" text-anchor="end" font-family="Arial">36.2 m</text>
<text x="40" y="235.0" font-size="12" text-anchor="end" font-family="Arial">41.3 m</text>
<text x="40" y="174.99999999999997" font-size="12" text-anchor="end" font-family="Arial">46.5 m</text>
<text x="40" y="115.00000000000003" font-size="12" text-anchor="end" font-family="Arial">51.7 m</text>
<text x="40" y="55.0" font-size="12" text-anchor="end" font-family="Arial">56.9 m</text>
<text x="50.0" y="370" font-size="12" text-anchor="middle" font-family="Arial">0 m</text>
<text x="166.66666666666666" y="370" font-size="12" text-anchor="middle" font-family="Arial">740 m</text>
<text x="283.3333333333333" y="370" font-size="12" text-anchor="middle" font-family="Arial">1.48 km</text>
<text x="400.0" y="370" font-size="12" text-anchor="middle" font-family="Arial">2.22 km</text>
<text x="516.6666666666666" y="370" font-size="12" text-anchor="middle" font-family="Arial">2.96 km</text>
<text x="633.3333333333334" y="370" font-size="12" text-anchor="middle" font-family="Arial">3.7 km</text>
<text x="750.0" y="370" font-size="12" text-anchor="middle" font-family="Arial">4.45 km</text>
<polygon points="50,350 125.15013832969703,296.10640656751656 142.34350750129335,310.6582393228565 155.97854202748601,303.9662750406536 183.46903888976362,278.37906999769075 197.32450122584856,262.2388437181285 209.7471827976338,261.77050715438037 220.4851661080996,296.1307131879211 233.15976517690456,320.59163091500903 286.4088261094492,348.56352685474315 298.5166108099598,350.0 307.1132953957579,349.9999519663478 314.6865651499134,340.5348104905023 342.7911109111766,296.76471923006625 348.12861287928206,290.9290574822211 352.2222722058526,289.0278081568801 355.93805528689353,294.2721692596535 371.27353291796936,318.773318010494 383.853662925392,336.8087577749466 392.6392856339549,341.7469391468663 400.7006455385861,340.4808055625169 409.10839200161956,336.30379251437074 418.46082907847676,300.73329075317696 437.7640072876133,264.480860106595 449.19476371488344,239.52593442238316 474.9533277851504,228.05516702017553 488.54112778065195,239.9264935000374 517.6061089993027,153.73944513037176 528.3440923097685,128.80535574189466 538.5782406261949,83.72378996937954 550.8119840752154,50.0 567.8006702804831,107.6505175043859 572.3194403832745,150.07926692449115 580.3493106007783,150.07915747802502 587.9855597291887,120.62493229371341 598.1882183584877,92.6759684338042 606.0921298274816,101.21854342531202 619.2390742031986,95.72062365471785 638.5579972558987,103.63847416344922 654.1296475404305,126.24578070316528 662.3169661935717,142.58569702584873 667.8591511280056,138.83219660750447 673.4800602802583,136.05897533650162 684.6431543669449,138.7500862308848 750.0,186.96898516858965 750,350 50,350" stroke="red" fill="none" stroke-width="2" />
</svg>