<svg xmlns="http://www.w3.org/2000/svg" width="800" height="400">
<polygon points="50,350 50.0,161.89382789518154 66.27906976744185,168.5099103149571 82.55813953488372,165.46736660340972 98.83720930232559,153.83398266461916 115.11627906976744,146.49572712424919 131.3953488372093,146.28279495563177 147.67441860465118,161.9048790532485 163.95348837209303,173.0261893697359 180.2325581395349,185.7437880451848 196.51162790697674,186.39688960858243 212.7906976744186,186.3968677697799 229.06976744186048,182.09348157974486 245.34883720930233,162.19313389372064 261.62790697674416,159.53991352300775 277.90697674418607,158.6754985418513 294.1860465116279,161.05988034985975 310.4651162790698,172.19948195469925 326.74418604651163,180.39940824334687 343.0232558139535,182.6445835081898 359.30232558139534,182.0689278990757 375.5813953488372,180.1698226070037 391.8604651162791,163.99746993352562 408.13953488372096,147.51507399704352 424.4186046511628,136.1691598512441 440.69767441860466,130.95390320096197 456.9767441860465,136.35127655889917 473.25581395348837,97.16579215167638 489.5348837209302,85.82935135897424 505.81395348837214,65.33273352545496 522.0930232558139,50.0 538.3720930232558,76.21117090641127 554.6511627906978,95.50166907602559 570.9302325581396,95.50161931550039 587.2093023255815,82.1100703122641 603.4883720930233,69.40289785134979 619.7674418604652,73.28683337831558 636.046511627907,70.78716952489367 652.3255813953489,74.38707013081597 668.6046511627907,84.66562444563272 684.8837209302326,92.09467032189451 701.1627906976744,90.38811771453891 717.4418604651163,89.12725519600178 733.7209302325582,90.35078571462054 750.0,112.27381183279897 750,350 50,350" stroke="red" fill="none" stroke-width="2" />
</svg>